# xmcd
#
# Track frame offsets:
#	150
#	17396
#	37489
#	65304
#	77184
#	98959
#	118735
#	136835
#	152352
#	167782
#	184296
#
# Disc length: 2702 seconds
# Revision: 1
# Processed by: cddbd v1.5.2PL0 Copyright (c) Steve Scherf et al.
# Submitted via: dBpowerAMP V12.0
#
DISCID=8d0a8c0b
DTITLE=Estelle,AKAEstelleFantaSwaray,Hammersmith,London,England,UK - True Romance
DYEAR=2015
DGENRE=R&B
TTITLE0=Time After Time
TTITLE1=Conqueror
TTITLE2=Something Good~Devotion[Passion Interlude]
TTITLE3=Make Her Say{Beat It Up}
TTITLE4=Time Share{Suite 509}
TTITLE5=Same,The
TTITLE6=Fight for It
TTITLE7=Silly Girls
TTITLE8=Gotcha Love
TTITLE9=She Will Love
TTITLE10=All That Matters
EXTD=
EXTT0=
EXTT1=
EXTT2=
EXTT3=
EXTT4=
EXTT5=
EXTT6=
EXTT7=
EXTT8=
EXTT9=
EXTT10=
PLAYORDER=
